<?xml version="1.0" encoding="UTF-8"?>
<!DOCTYPE svg PUBLIC "-//W3C//DTD SVG 1.1//EN" "http://www.w3.org/Graphics/SVG/1.1/DTD/svg11.dtd">
<svg xmlns="http://www.w3.org/2000/svg" xmlns:xlink="http://www.w3.org/1999/xlink" version="1.1" width="506px" height="333px" viewBox="-0.5 -0.5 506 333" style="background-color: rgb(255, 255, 255);"><defs/><g><path d="M 255 40 L 255 73.63" fill="none" stroke="rgb(0, 0, 0)" stroke-miterlimit="10" pointer-events="stroke"/><path d="M 255 78.88 L 251.5 71.88 L 255 73.63 L 258.5 71.88 Z" fill="rgb(0, 0, 0)" stroke="rgb(0, 0, 0)" stroke-miterlimit="10" pointer-events="all"/><path d="M 255 40 L 106.21 73.6" fill="none" stroke="rgb(0, 0, 0)" stroke-miterlimit="10" pointer-events="stroke"/><path d="M 101.09 74.75 L 107.15 69.8 L 106.21 73.6 L 108.69 76.63 Z" fill="rgb(0, 0, 0)" stroke="rgb(0, 0, 0)" stroke-miterlimit="10" pointer-events="all"/><rect x="195" y="0" width="120" height="40" rx="6" ry="6" fill="rgb(255, 255, 255)" stroke="rgb(0, 0, 0)" pointer-events="all"/><g fill="rgb(0, 0, 0)" font-family="Helvetica" text-anchor="middle" font-size="12px"><text x="254.5" y="17.5">Mode of access to</text><text x="254.5" y="31.5">empirical evidence</text></g><rect x="45" y="75" width="110" height="40" rx="6" ry="6" fill="rgb(255, 255, 255)" stroke="rgb(0, 0, 0)" pointer-events="all"/><g fill="rgb(0, 0, 0)" font-family="Helvetica" text-anchor="middle" font-size="12px"><text x="99.5" y="85.5">(0) none</text><text x="99.5" y="99.5">[Mathematics,</text><text x="99.5" y="113.5">Philosophy]</text></g><path d="M 255 110 L 368.96 147.99" fill="none" stroke="rgb(0, 0, 0)" stroke-miterlimit="10" pointer-events="stroke"/><path d="M 373.94 149.65 L 366.19 150.75 L 368.96 147.99 L 368.41 144.11 Z" fill="rgb(0, 0, 0)" stroke="rgb(0, 0, 0)" stroke-miterlimit="10" pointer-events="all"/><path d="M 255 110 L 131.09 148.13" fill="none" stroke="rgb(0, 0, 0)" stroke-miterlimit="10" pointer-events="stroke"/><path d="M 126.07 149.67 L 131.73 144.27 L 131.09 148.13 L 133.79 150.96 Z" fill="rgb(0, 0, 0)" stroke="rgb(0, 0, 0)" stroke-miterlimit="10" pointer-events="all"/><rect x="215" y="80" width="80" height="30" rx="4.5" ry="4.5" fill="rgb(255, 255, 255)" stroke="rgb(0, 0, 0)" pointer-events="all"/><g fill="rgb(0, 0, 0)" font-family="Helvetica" text-anchor="middle" font-size="12px"><text x="254.5" y="99.5">Empirical</text></g><path d="M 375 180 L 439.47 216.84" fill="none" stroke="rgb(0, 0, 0)" stroke-miterlimit="10" pointer-events="stroke"/><path d="M 444.03 219.45 L 436.22 219.01 L 439.47 216.84 L 439.69 212.93 Z" fill="rgb(0, 0, 0)" stroke="rgb(0, 0, 0)" stroke-miterlimit="10" pointer-events="all"/><path d="M 375 180 L 320.09 221.18" fill="none" stroke="rgb(0, 0, 0)" stroke-miterlimit="10" pointer-events="stroke"/><path d="M 315.89 224.33 L 319.39 217.33 L 320.09 221.18 L 323.59 222.93 Z" fill="rgb(0, 0, 0)" stroke="rgb(0, 0, 0)" stroke-miterlimit="10" pointer-events="all"/><rect x="335" y="150" width="80" height="30" rx="4.5" ry="4.5" fill="rgb(255, 255, 255)" stroke="rgb(0, 0, 0)" pointer-events="all"/><g fill="rgb(0, 0, 0)" font-family="Helvetica" text-anchor="middle" font-size="12px"><text x="374.5" y="169.5">Creative</text></g><path d="M 125 180 L 174.85 216.25" fill="none" stroke="rgb(0, 0, 0)" stroke-miterlimit="10" pointer-events="stroke"/><path d="M 179.1 219.34 L 171.38 218.06 L 174.85 216.25 L 175.49 212.39 Z" fill="rgb(0, 0, 0)" stroke="rgb(0, 0, 0)" stroke-miterlimit="10" pointer-events="all"/><path d="M 125 180 L 60.36 221.56" fill="none" stroke="rgb(0, 0, 0)" stroke-miterlimit="10" pointer-events="stroke"/><path d="M 55.94 224.4 L 59.94 217.67 L 60.36 221.56 L 63.72 223.55 Z" fill="rgb(0, 0, 0)" stroke="rgb(0, 0, 0)" stroke-miterlimit="10" pointer-events="all"/><rect x="85" y="150" width="80" height="30" rx="4.5" ry="4.5" fill="rgb(255, 255, 255)" stroke="rgb(0, 0, 0)" pointer-events="all"/><g fill="rgb(0, 0, 0)" font-family="Helvetica" text-anchor="middle" font-size="12px"><text x="124.5" y="169.5">Investigative</text></g><rect x="385" y="220" width="120" height="40" rx="6" ry="6" fill="rgb(255, 255, 255)" stroke="rgb(0, 0, 0)" pointer-events="all"/><g fill="rgb(0, 0, 0)" font-family="Helvetica" text-anchor="middle" font-size="12px"><text x="444.5" y="230.5">(6) Experiment</text><text x="444.5" y="244.5">[Metallurgy,</text><text x="444.5" y="258.5">Simulations]</text></g><path d="M 315 255 L 315 283.63" fill="none" stroke="rgb(0, 0, 0)" stroke-miterlimit="10" pointer-events="stroke"/><path d="M 315 288.88 L 311.5 281.88 L 315 283.63 L 318.5 281.88 Z" fill="rgb(0, 0, 0)" stroke="rgb(0, 0, 0)" stroke-miterlimit="10" pointer-events="all"/><path d="M 315 255 L 438.85 288.34" fill="none" stroke="rgb(0, 0, 0)" stroke-miterlimit="10" pointer-events="stroke"/><path d="M 443.92 289.71 L 436.25 291.27 L 438.85 288.34 L 438.07 284.51 Z" fill="rgb(0, 0, 0)" stroke="rgb(0, 0, 0)" stroke-miterlimit="10" pointer-events="all"/><rect x="275" y="225" width="80" height="30" rx="4.5" ry="4.5" fill="rgb(255, 255, 255)" stroke="rgb(0, 0, 0)" pointer-events="all"/><g fill="rgb(0, 0, 0)" font-family="Helvetica" text-anchor="middle" font-size="12px"><text x="314.5" y="244.5">Observation</text></g><rect x="120" y="220" width="120" height="40" rx="6" ry="6" fill="rgb(255, 255, 255)" stroke="rgb(0, 0, 0)" pointer-events="all"/><g fill="rgb(0, 0, 0)" font-family="Helvetica" text-anchor="middle" font-size="12px"><text x="179.5" y="230.5">(3) Experiment</text><text x="179.5" y="244.5">[High energy physics,</text><text x="179.5" y="258.5">Oncology]</text></g><path d="M 55 255 L 55 283.63" fill="none" stroke="rgb(0, 0, 0)" stroke-miterlimit="10" pointer-events="stroke"/><path d="M 55 288.88 L 51.5 281.88 L 55 283.63 L 58.5 281.88 Z" fill="rgb(0, 0, 0)" stroke="rgb(0, 0, 0)" stroke-miterlimit="10" pointer-events="all"/><path d="M 55 255 L 173.87 288.28" fill="none" stroke="rgb(0, 0, 0)" stroke-miterlimit="10" pointer-events="stroke"/><path d="M 178.92 289.7 L 171.24 291.18 L 173.87 288.28 L 173.13 284.44 Z" fill="rgb(0, 0, 0)" stroke="rgb(0, 0, 0)" stroke-miterlimit="10" pointer-events="all"/><rect x="15" y="225" width="80" height="30" rx="4.5" ry="4.5" fill="rgb(255, 255, 255)" stroke="rgb(0, 0, 0)" pointer-events="all"/><g fill="rgb(0, 0, 0)" font-family="Helvetica" text-anchor="middle" font-size="12px"><text x="54.5" y="244.5">Observation</text></g><rect x="390" y="290" width="110" height="40" rx="6" ry="6" fill="rgb(255, 255, 255)" stroke="rgb(0, 0, 0)" pointer-events="all"/><g fill="rgb(0, 0, 0)" font-family="Helvetica" text-anchor="middle" font-size="12px"><text x="444.5" y="307.5">(5) Active [Social</text><text x="444.5" y="321.5">robotics]</text></g><rect x="260" y="290" width="110" height="40" rx="6" ry="6" fill="rgb(255, 255, 255)" stroke="rgb(0, 0, 0)" pointer-events="all"/><g fill="rgb(0, 0, 0)" font-family="Helvetica" text-anchor="middle" font-size="12px"><text x="314.5" y="300.5">(4) Passive</text><text x="314.5" y="314.5">[Architecture,</text><text x="314.5" y="328.5">Bridge building]</text></g><rect x="125" y="290" width="110" height="40" rx="6" ry="6" fill="rgb(255, 255, 255)" stroke="rgb(0, 0, 0)" pointer-events="all"/><g fill="rgb(0, 0, 0)" font-family="Helvetica" text-anchor="middle" font-size="12px"><text x="179.5" y="300.5">(2) Active</text><text x="179.5" y="314.5">[Interviews,</text><text x="179.5" y="328.5">Surveys]</text></g><rect x="0" y="290" width="110" height="40" rx="6" ry="6" fill="rgb(255, 255, 255)" stroke="rgb(0, 0, 0)" pointer-events="all"/><g fill="rgb(0, 0, 0)" font-family="Helvetica" text-anchor="middle" font-size="12px"><text x="54.5" y="300.5"> (1) Passive</text><text x="54.5" y="314.5">[Astronomy,</text><text x="54.5" y="328.5">Discourse analysis]</text></g></g></svg>
